<?xml version="1.0" encoding="UTF-8"?>
<svg id="_레이어_1" data-name="레이어_1" xmlns="http://www.w3.org/2000/svg" version="1.1" viewBox="0 0 100 100" width="100" height="100">
  <!-- Generator: Adobe Illustrator 30.2.1, SVG Export Plug-In . SVG Version: 2.1.1 Build 1)  -->
  <defs>
    <style>
      .st0 {
        fill: #fff;
        fill-rule: evenodd;
      }
    </style>
  </defs>
  <path class="st0" d="M76.95,3.03c-.31,1.36.57,3.04,1.63,4.25.3.32-1.03.82-1.31,1.05.31.04,1.21.13,1.31.26.47,2.21,1.41,2.76,3.65,2.65,2.18-.33,3.36-1.65,5.38.34,1.19.9,1.72,4.11.66,4.94-.32.08-.35-.02-.35-1.29.36-2.7-1.95-4.35-4.26-3.46-1.47.83-2.06,2.32-1.51,4q.12.39,2.82,3.15c1.4,1.43,1.41,1.45,1.86,1.6,9.25,2.6,9.5-11.68-.21-13.62-.94-.17-5.62-.81-5.79-1.17-1.21-.58-2.7-2.19-3.73-3.25-.05,0-.1.2-.15.56Z"/>
  <path class="st0" d="M53.63,7.48c1.78,3.59,4.19,5.3,6.8,6.82-.16.06-2.23.3-1.94.5.2.06,3.74.07,3.74.01,0-.07-.83-1.63-1.24-2.3-1.52-2.71-3.24-3.91-5.73-4.9-.41-.15-1.75-.56-1.83-.56-.03,0,.06.19.19.43Z"/>
  <path class="st0" d="M44.46,7.43c-3.92,1.18-5.7,3.05-7.91,7.56.47-.05,4.75.12,3.61-.21-.26-.08-1.74-.37-1.92-.37-.01,0,.29-.16.68-.37,2.34-1.23,3.79-2.51,5.23-4.67.51-.76,1.25-2.03,1.25-2.16,0-.06-.15-.03-.94.22Z"/>
  <path class="st0" d="M61.27,9.07c2.22,7.54,8.86,7.94,4.4,7.82-1.54,0-2.31.05-3.25.26-.07.13-.05,1.92-.05,2.37,1.92-.04,5.24-.77,6.9-1.68,0-.1-.39-1.34-.63-2.02-1.14-3.17-2.15-4.46-4.76-6.03-.73-.44-2.68-1.45-2.8-1.45-.04,0,.05.33.19.74Z"/>
  <path class="st0" d="M36.91,9.24c-4.05,2.05-5.37,4.68-6.54,8.85,1.62.89,4.97,1.82,6.96,1.86-.13-2.65.72-2.33-2.19-2.7-.1-.06-3.3-.08-2.9-.26,1.9-1.35,3.71-3.44,4.63-5.65.36-.79.94-2.39.91-2.49-.01-.03-.4.14-.86.38Z"/>
  <path class="st0" d="M10.84,9.14c-.64.17-1.12.32-1.41.61.28.26,11.08,11.46,10.07,10.31.23-1.08,1.19-2.66,2.15-3.25-3.43-4.51-6.6-8.07-10.81-7.67Z"/>
  <path class="st0" d="M8.22,10.79c-2.56,1.3-1.39,7.73-.26,9.06,2.38.68,7.21.72,9.54.01-1.18-1.34-4.92-5.09-6.59-6.83-1.56-1.43-2.16-2.62-2.69-2.24Z"/>
  <path class="st0" d="M68.33,11.35c.67,3.79,1.24,5.38,3.65,8.25.49-.46,1.07-1.11,1.57-1.65-.63-2.76-2.9-5.45-5.21-6.84-.02,0-.02.11,0,.24Z"/>
  <path class="st0" d="M48.94,11.45c-1.21.7-.02,2.56,1.1,1.76.95-.74.03-2.43-1.1-1.76Z"/>
  <path class="st0" d="M30.19,11.9c-3.44,2.23-5.09,6.23-5.35,9.96,2.49,1.09,5.7,1.27,8.26.52.5-.14,1.64-.61,1.79-.75.14-.11-2.04-.77-3.31-1.01-1.06-.2-4.27-.14-5.07.09,1.85-2.2,3.36-4.29,3.87-7.4.29-1.45.32-1.68.25-1.68-.04,0-.23.12-.45.27Z"/>
  <path class="st0" d="M77.4,13.7v1.52c.61.54,5.97,6.14,7.5,7.7h2.97c-2.74-2.77-8.92-9.16-10.48-10.74v1.52Z"/>
  <path class="st0" d="M52.59,12.47c-.7.2-1.04-.01-.14.57,1.44,1,3.74,1.4,5.03.85-1.04-1.27-2.88-1.84-4.89-1.42Z"/>
  <path class="st0" d="M44.65,12.44c-1.16.04-2.46.94-2.99,1.54-.01.09.24.15.97.23,1.44.19,3.36-.4,4.61-1.47-.54-.19-2.17-.38-2.59-.3Z"/>
  <path class="st0" d="M63.54,14.77c-.94.43-.65,2.09.43,1.99,1.65,0,1.03-2.69-.43-1.99Z"/>
  <path class="st0" d="M34.94,15.04c-.89.42-.56,2.04.48,1.94,1.67.01,1.03-2.74-.48-1.94Z"/>
  <path class="st0" d="M74.46,15.45c.12.79.19,1.08.23,1.08.06,0,.77-.57.77-.61-.04-.06-.85-.61-1.05-.75l.05.28Z"/>
  <path class="st0" d="M23.54,16.22c-2.63,2.64-3.87,6.38-3.41,10.52,2.9.83,7.51.08,9.83-1.9-2.36-.75-5.83-.4-8.44.43,2.04-2.8,2.85-6.22,2.6-9.67l-.59.61Z"/>
  <path class="st0" d="M38.17,28.07c0,7.5.03,12.52.06,13.05.24,8.27,9.71,12.83,16.75,9.39,8.08-5.18,4.87-8.94,5.53-21.6,0,0-.02-13.02-.02-13.02h-22.32v12.18ZM54.07,21.59v2.43h3.71v4.07h-3.68v1.42h3.61c.02.98-.05,3.7.08,4.19h-3.57v11.81h-2.72c-.78-.76-4.12-4.05-4.37-4.16-.06.03-3.21,3.83-3.31,3.99.14.37-1.8-1.75-2.3-2.26,1.76-2.17,5.65-6.87,5.6-6.74-.07-.13,2.44,2.06,3.43,2.85v-16.4h-6.84v-3.68c2.58,0,7.78.02,10.36.03v2.44Z"/>
  <path class="st0" d="M76.3,17.28c-2.06,2.19-6.16,6.58-6.18,6.61-.18-.14,4.6,4.65,6.95,6.94,1.52-1.48,5.1-5.23,6.66-6.81-2.22-2.27-4.78-4.91-7.01-7.18l-.42.45Z"/>
  <path class="st0" d="M68.34,20.03c-1.11.07-3.24.63-4.23,1.08,1.37.89,3.41,1.2,5.2,1.25,2.73-2.88,2.87-2.32-.97-2.34Z"/>
  <path class="st0" d="M8.45,21.1c.91,2.14,3.61,4.68,6.32,6.16-.03-2.55,1.11-4.99,2.64-6.5-2.26.59-6.95.67-9.02,0-.1-.03-.09.01.05.34Z"/>
  <path class="st0" d="M17.95,21.55c-2.28,3.21-2.56,6.75-1.72,11.11,2.52.2,5.69-.67,7.72-2.16.65-.47,1.83-1.54,1.76-1.61-.03-.03-.55-.05-1.16-.05-2.4-.1-4.66.77-7.09,2.18.61-1.49,1.38-3.35,1.4-5.25.11-1.26-.31-4.05-.5-4.68-.03-.03-.21.17-.41.46Z"/>
  <path class="st0" d="M23.86,22.15c-2.05,1.01.79,3.39,1.32,1.1.08-.71-.64-1.35-1.32-1.1Z"/>
  <path class="st0" d="M67.6,25.27c-.39.4-.72.75-.72.77-.39-.3,6.63,7.04,7.8,8.34,2.34-2.39,2.05-.96-1.67-5.11-2.36-2.39-3.52-3.68-4.64-4.73-.03,0-.37.33-.77.73Z"/>
  <path class="st0" d="M85.74,26.65c-1.08,2.67-1.24,6.91-.53,9.77-2.18-1.77-4.41-3.27-7.27-3.54-.26-.03-.47-.04-.47-.02,0,.16,1.19,1.64,1.73,2.15,1.69,1.69,4.83,3.21,6.91,3.24,1.45-3.44,2.14-7.31.05-11.14-.25-.41-.28-.88-.42-.45Z"/>
  <path class="st0" d="M30.14,26.79c-1.23,1.35-3.43.37-2.08,1.54.38.38,1.97,2.11,2.33,2.37.31-.72.12-3.47,0-4.17l-.25.26Z"/>
  <path class="st0" d="M82.47,27.63c-.57.57-1.04,1.08-1.05,1.12.27,1.54,1.3,2.08-.92,1.08-.28.27-1.44,1.34-1.48,1.46.64.45,3.08.71,4.17.63.41-1.43.51-3.69.32-5.33l-1.03,1.03Z"/>
  <path class="st0" d="M13.19,27.79c-1.9,3.69-1.28,7.95.58,11.47,3.22-.41,6.7-2.94,8.34-5.98-2.88.34-5.32,1.89-7.57,4.14.54-3,.13-7.25-1.21-9.96l-.15.32Z"/>
  <path class="st0" d="M31.47,27.65c.23.98.2,3.02-.04,4.3.11.09,5.45,6.22,5.15,5.75.04-.19.03-3.71.03-4.52l-.25-.27c-.32-.34-1.35-1.49-3.31-3.68-.88-.9-1.7-2.05-1.58-1.58Z"/>
  <path class="st0" d="M64.08,30.38l-2.1,2.17v11.79c3.28.08,2.2.7,4.95-2.31,5.27-5.85,5.53-6.14,6.18-6.84-1.57-1.55-5.38-5.55-6.87-6.97-.03,0-1,.97-2.16,2.16Z"/>
  <path class="st0" d="M26.63,29.72c-.29.29-.53.55-.53.57.49.21,1.57.22,2.01-.01-.18-.22-.77-.94-.87-1.03-.06-.05-.23.08-.61.46Z"/>
  <path class="st0" d="M25.18,31.22c-.71.68-1.87,1.11-3.01,1.36.2.26.75,1,.86,1.14,1.42.45,6,.4,7.24.27.52-.06.99-.13,1.04-.15-.15-.51-2.2-2.45-2.64-2.96-.93.28-2.23.32-3.1,0l-.39.35Z"/>
  <path class="st0" d="M83.27,32.4c-1.12.3-.92,2.16.32,2.06,1.51-.07,1.04-2.43-.32-2.06Z"/>
  <path class="st0" d="M15.66,33.18c-1.45.92.56,2.96,1.41,1.42.51-.86-.53-1.94-1.41-1.42Z"/>
  <path class="st0" d="M89.05,34.16c-1.47,3.03-1.76,5.9-1.6,9.01-1.55-1.84-3.31-3.46-5.5-4.27-.65-.26-1.57-.53-1.63-.48-.06.06.69,1.43,1.11,2.01,1.31,2.03,4.65,4.36,6.69,4.6.58-1.08,1.91-3.85,2.06-4.83.43-1.7.28-3.7-.48-6.18-.3-.98-.2-.73-.66.13Z"/>
  <path class="st0" d="M9.84,34.42c-1.4,4.08-.43,7.85,1.97,11.46,3.01-.95,5.77-3.35,7.1-6.13.52-1.06.54-1-.31-.7-2.61.9-4.45,2.53-6.22,4.86.07-3.41-.74-6.92-2.37-9.57q-.1-.14-.17.08Z"/>
  <path class="st0" d="M24.56,35.45c1.14,1.16,3.65,4.32,4.85,5.25,2.29.48,5.42.49,7.66-.04v-1.3c-1.36-1.4-2.97-3.02-4.36-4.43-2.49.47-5.89.34-8.64-.01l.48.54Z"/>
  <path class="st0" d="M92.01,41.42c-2.07,2.63-3.2,5.71-3.55,8.71-1.64-3.03-3.25-4.83-6.04-6.25.61,3.39,3.11,6.6,6.26,8.28,3.21-3.6,4.54-6.84,3.72-11.25l-.39.51Z"/>
  <path class="st0" d="M30.3,41.85c2.34,2.58,1.4,2.73,4.03,2.73,3.9-.11,2.88.45,2.68-2.53,0-.25,0-.44-.03-.43-1.11.28-2.06.37-3.37.32-.95-.03-3.07-.28-3.48-.41-.09-.03-.05.06.16.32Z"/>
  <path class="st0" d="M7.55,41.95c-.62,4.29.52,7.26,3.36,10.45.49.59.37.59,1.22.05,2.61-1.58,4.76-4.52,5.42-7.51q.05-.28-.1-.21c-2.79,1.45-4.34,3.34-5.89,6.16-.41-3.36-1.77-6.63-3.96-9.2l-.05.25Z"/>
  <path class="st0" d="M28.48,45.83c-.31.37-1.34,1.6-1.8,2.14v32.9c3.14.03,20.91-.04,19.75.14.93.18,1.42,1.33,1.87,2.31h3.48c.1-1.02.52-1.87,1.68-2.3.27-.11.88-.12,9.94-.15l9.65-.03c.01-8.19.03-24.69.03-32.88-.61-.72-1.66-2-2.12-2.48,0,8.37,0,25.21,0,33.58-4.37.01-13.15.04-17.52.05-1.34.26-2.46.94-3.02,2.09-.26,0-.79,0-1.05,0-.32-.65-.98-1.4-1.6-1.7-.87-.41-.29-.39-10.06-.41l-8.89-.03c0-8.37-.02-25.21-.03-33.57l-.3.35Z"/>
  <path class="st0" d="M30.62,62v16.35l8.12.02c8.87.03,8.25,0,9.24.39.76.3,1.81,1.01,1.81,1.22.45-.07,1.68-1.22,2.23-1.27.95-.36.75-.35,9.26-.35h7.87v-32.72h-7.2c-4.37,10.42-20.22,10.94-24.13,0h-7.2v16.36ZM47.96,65.36l-.02,8.7c-.52.01-1.57.03-2.1.03v-7.29c-.49.03-3.56-.07-3.29.1-2.3,6.31-9.35,3.56-9.04-3.04-.41-5.83,5.85-9.72,8.72-3.97h3.59c-.01-.87-.04-2.66-.07-3.23h2.23v8.69ZM64.91,57.87v.97c-.7.01-4.95,0-4.68.12.7,1.61,3.18,2.42,5,2.53.01.5.03,1.51.03,2.01-2.3.39-5.43-1.15-6.59-3.14-1.6,2.1-4.17,3.57-6.57,3.22v-2.1c1.84.1,4.18-.96,4.97-2.58-.2-.04-3.84-.06-4.68-.06,0-.49-.03-1.48-.04-1.97,3.13,0,9.43.02,12.56.03v.97ZM66.46,65.54v.84c-1.6.01-4.82.03-6.42.03v1.26c7.08,1.06,4.95,7.39-1.81,6.98-6.24.05-7.85-5.96-1.06-6.98,0-.31.03-.94.04-1.26h-6.27c0-.33-.02-1.6.05-1.7.68-.06,12.69-.02,15.47-.01v.84Z"/>
  <path class="st0" d="M37.67,59.54c-3.23,1.02-2.75,9.96,1.48,8.38,2.84-1.34,2.57-9.29-1.48-8.38Z"/>
  <path class="st0" d="M43.02,62.72c.05.43.05,1.21.05,1.7h2.77v-2.13h-2.86l.04.43Z"/>
  <path class="st0" d="M57.23,69.54c-1.4.32-2.41.59-2.28,1.79.62,1.82,5.13,1.61,6.51.87,3-2.25-2.68-3.08-4.23-2.66Z"/>
  <path class="st0" d="M87.56,45.74c-1.26.54-.37,2.55.87,1.88,1.18-.56.26-2.42-.87-1.88Z"/>
  <path class="st0" d="M11.59,46.61c-1.1.7-.1,2.48,1.05,1.79,1.13-.66.13-2.48-1.05-1.79Z"/>
  <path class="st0" d="M93.14,49.39c-2.15,1.79-4.16,5.34-4.83,7.8-1.04-2.96-2.68-5.71-4.96-7.14.07,3.31,2.09,7.16,4.82,9.21,3.19-2.66,5.19-4.79,5.48-9.24.12-1.24.14-1.21-.52-.64Z"/>
  <path class="st0" d="M6.18,50.13c.18,4.68,2.22,7.04,5.47,9.69,2.05-1.2,4.08-4.57,4.57-6.98.36-2.22.81-2.93-1.26-.85-1.56,1.38-2.36,3.3-3.41,5.78-.6-2.05-1.75-4.36-3.16-6.05-.55-.66-1.92-2.05-2.14-2.16-.12-.06-.12-.05-.08.57Z"/>
  <path class="st0" d="M23.39,52.57v1.65h2.52v-3.29h-2.52v1.65Z"/>
  <path class="st0" d="M73.98,52.57v1.65h2.52v-3.29h-2.52v1.65Z"/>
  <path class="st0" d="M83.45,56.23c-.61,3.26.59,7.29,2.77,9.94,4.74-2.14,7.04-5.27,7.62-9.54-2.17.69-5.92,5.06-7.09,7.54-.2-2.41-1.06-5.5-2.83-7.55-.31-.31-.44-.74-.48-.39Z"/>
  <path class="st0" d="M16.22,57.4c-1.77,2.06-2.57,4.75-2.9,7.53-1.05-2.45-4.72-6.16-6.94-7.01-.12.12.63,2.33,1.14,3.37.77,2.27,4.25,4.65,6.35,5.58,1.55-1.9,2.7-4.41,2.95-7,.1-.95.01-3-.13-3-.02,0-.23.24-.46.54Z"/>
  <path class="st0" d="M86.89,59.85c-1.5.96.63,2.91,1.43,1.37.48-.92-.58-1.9-1.43-1.37Z"/>
  <path class="st0" d="M12.19,60.44c-1.56.71.21,2.98,1.25,1.57.56-.91-.3-1.99-1.25-1.57Z"/>
  <path class="st0" d="M82.21,62.29c-.84,2.97-.2,7.64,1.79,10.19,3.91-1.23,7.24-3.74,8.41-7.98-2.81.89-6.06,3.61-7.69,6.14-.05-3.12-.65-6.35-2.51-8.35Z"/>
  <path class="st0" d="M17.59,63.41c-2.91,3.98-1.5,9.34-2.59,7.32-1.57-2.11-4.74-4.81-7.23-5.47,1.37,4.42,4.3,6.53,8.31,7.93.12.05.17.01.39-.37,1.7-2.73,2.26-6.23,1.62-9.27-.19-.71-.05-.79-.5-.14Z"/>
  <path class="st0" d="M79.96,68.78c-1.28,2.75-1.24,7.04-.05,9.65,4.11-.47,6.67-1.48,8.71-4.34,1.35-2.04,2.22-2.3-.43-1.61-2.51.48-5.13,2.48-7.15,4.19.54-2.51.54-5.62-.45-7.96-.35-.86-.24-.76-.63.06Z"/>
  <path class="st0" d="M19.78,68.86c-1.13,2.59-1.14,5.49-.59,8.32-1.15-.85-2.82-2.21-4.29-2.86-1.29-.63-2.12-.89-4.34-1.36-.18-.04-.2-.08.33.72,2.37,3.7,5.18,4.66,9.35,5.3,1.45-2.23,1.26-7.93-.31-10.45l-.15.34Z"/>
  <path class="st0" d="M23.39,71.35v1.65h2.52v-32.9h-2.52v1.65Z"/>
  <path class="st0" d="M73.98,71.35v1.65h2.52v-32.9h-2.52v1.65Z"/>
  <path class="st0" d="M77.46,72.88c-.3.4-.54.76-.54.8,0,.09,1.32,1.59,1.36,1.55.04-.04-.23-3.01-.26-3.06-.01,0-.26.31-.55.71Z"/>
  <path class="st0" d="M82.25,72.93c-.83.46-.48,2.01.53,1.94,1.72-.01.98-2.78-.53-1.94Z"/>
  <path class="st0" d="M16.75,73.45c-1.15.66-.07,2.53,1.08,1.79,1.1-.75.04-2.43-1.08-1.79Z"/>
  <path class="st0" d="M22.78,73.82c-.67,2.56-.12,6,.98,8.57-2.54-1.61-6.08-2.64-9.43-2.51,2.74,3.52,6.88,4.45,10.86,3.9.69-2.82-.2-8.01-2.41-9.96Z"/>
  <path class="st0" d="M25.47,74.94l-.59.57c.68,1.14.92,4.4.75,6.16-.02.18.41-.72.46-.81,0-1.62-.02-4.89-.03-6.51l-.59.58Z"/>
  <path class="st0" d="M73.46,76.61v1.86c4.61,4.09,11.31,10.18,15.93,14.27.78,0,2.34-.02,3.12-.03-6.32-6.96-13.4-14.77-16.36-17.97h-2.68v1.87Z"/>
  <path class="st0" d="M83.65,78.93c-.5.12-1.29.45-1.36.56.02.15,1.38,1.52,1.7,1.86.92-.91,2.51-2.42,2.32-2.3-.61-.34-1.86-.29-2.66-.12Z"/>
  <path class="st0" d="M75.82,81.54c-.07.22-.42,1.88-.4,1.9.11.03,1.94,0,2.38-.01-.34-.33-1.86-1.91-1.98-1.88Z"/>
  <path class="st0" d="M26.83,81.63c.77,2.44,1.26,3.72,2.03,5.3-2.61-1.4-5.48-1.89-8.57-1.43-1.45.23-1.39.17-.76.63,1.49,1.1,3.02,1.87,4.39,2.21,1.58.41,4.25.24,6.59-.4-.08-1.89-.56-4.45-1.15-6.4-.38.02-2.81-.12-2.52.08Z"/>
  <path class="st0" d="M70.68,81.69c-.35.81-1.42,6.1-1,6.3.54.21,3.39.26,4.88.08,2.7-.32,3.68-.62,5.07-1.56.81-.55.79-.52.65-.66-1.21-1.15-4.5-1.05-6-.52.95-.73.11-2.45-1.06-1.81-.94.46-.53,2.04.54,1.97-.71.33-1.94,1.06-2.53,1.43.57-1.11,1.81-4.44,1.98-5.3.18-.16-2.08-.08-2.45-.1l-.07.17Z"/>
  <path class="st0" d="M68.2,82.32c-2.47,1.96-4.15,5.28-4.46,8.62,4.52,1.58,8.14,1.88,11.82-.66-2.91-1.23-6.74-1.47-10.02-.34,1.33-1.81,2.58-3.81,2.91-5.58.23-.97.43-2.45.32-2.45-.03,0-.29.19-.57.41Z"/>
  <path class="st0" d="M31.43,82.43c.1,4.9,4.42,8.32,2.72,7.61-2.73-.68-5.96-.6-8.58.26-.72.23-.76.17.58.85,3.81,2.09,6.69,1.23,10.34.01-.26-3.36-2.33-7.28-5.06-9.07-.02,0-.02.15,0,.34Z"/>
  <path class="st0" d="M26.16,83.76c-1.32.49-.48,2.6.77,1.96,1.13-.51.37-2.37-.77-1.96Z"/>
  <path class="st0" d="M18.13,85.35c-1.79,1.93-4.05,4.4-5.85,6.33-1.61,1.72-1.11,1.15-1.28,2.5-.06,1.01.94.73,1.82.6,2.03-1.89,5.48-5.68,7.41-7.67-.45-.33-1.27-.94-1.57-1.27-.8-.51.74-.55,1.32-.81-.97-.99-.66-.93-1.85.31Z"/>
  <path class="st0" d="M63.25,85.03c-2.63,1.38-4.84,4.34-5.94,6.96-.16.54-.44.68.01.94,3.53,1.77,6.47,3.3,10.8,1.92,2.86-.25-3.82-2.35-4.25-2.35-1.4-.27-3.47-.36-4.99-.29.72-.55,2.24-2.09,2.74-2.74.98-1.26,1.86-3.14,2.29-4.68,0-.07-.13-.02-.66.25Z"/>
  <path class="st0" d="M36.68,85.03c.59,2.65,2.34,5.11,4.85,7.17-2.82-.25-7.3.69-9.44,2.36,3.84,1.67,8.15.56,11.31-1.85-.73-2.89-3.82-6.88-6.71-7.69Z"/>
  <path class="st0" d="M41.84,87.03c1.01,2.32,2.43,4.09,4.69,5.56.7.54,1.6.9.83.86-2.21.14-5.85,1.47-7.98,3.23-.71.54-.72.56-.34.63,4.71.32,6.43,0,10.38-3.4.01.68.03,2.03.03,2.71h1.55c0-.43-.01-2.29.03-2.39,1.7,1.39,3.89,2.84,5.29,3.05.54.5.77.12,2.65.1,1.2-.02,2.13-.06,2.22-.1-.04-.68-3.48-2.47-4.19-2.74-1.28-.5-3.58-1.09-4.29-1.09-.57,0-.24-.13.21-.45,2.59-1.6,4.23-3.46,5.29-5.98-2.86.63-5.58,2.85-7.21,5.48v-.92h-1.55v1.57c-1.56-2.94-4.59-5.51-7.61-6.12ZM50.98,94.08s-.55-.37-.55-.45c.01-.09.44-.81.55-1.01,0,.28.05,1.38,0,1.46ZM49.64,93.64c-.01.05-.06.1-.1.12-.1.08-.14-.66.02-.34.05.07.08.17.08.22Z"/>
  <path class="st0" d="M62,89.93c-1.58.83.46,3.08,1.34,1.45.45-.88-.44-1.83-1.34-1.45Z"/>
  <path class="st0" d="M37.71,90.04c-1.07.44-.66,2.23.54,2.03,1.48-.27.85-2.52-.54-2.03Z"/>
</svg>
